<svg width="20" height="20" viewBox="0 0 20 20" fill="none" xmlns="http://www.w3.org/2000/svg">
<path d="M10.707 0.292786L19.707 9.29279C20.337 9.92279 19.891 10.9998 19 10.9998H18V16.9998C18 17.7954 17.684 18.5585 17.1214 19.1211C16.5588 19.6837 15.7957 19.9998 15 19.9998H14V12.9998C14.0001 12.2346 13.7077 11.4983 13.1828 10.9415C12.6578 10.3848 11.9399 10.0497 11.176 10.0048L11 9.99979H9.00004C8.20439 9.99979 7.44133 10.3159 6.87872 10.8785C6.31611 11.4411 6.00004 12.2041 6.00004 12.9998V19.9998H5.00004C4.20439 19.9998 3.44133 19.6837 2.87872 19.1211C2.31611 18.5585 2.00004 17.7954 2.00004 16.9998V10.9998H1.00004C0.110039 10.9998 -0.336961 9.92279 0.293039 9.29279L9.29304 0.292786C9.48057 0.105315 9.73487 0 10 0C10.2652 0 10.5195 0.105315 10.707 0.292786ZM11 11.9998C11.2653 11.9998 11.5196 12.1051 11.7071 12.2927C11.8947 12.4802 12 12.7346 12 12.9998V19.9998H8.00004V12.9998C8.00007 12.7549 8.09 12.5184 8.25275 12.3354C8.41551 12.1524 8.63979 12.0354 8.88304 12.0068L9.00004 11.9998H11Z" fill="#262626"/>
</svg>
